<svg width="48" height="30" viewBox="0 0 48 30" fill="none" xmlns="http://www.w3.org/2000/svg">
<path d="M17.859 25.05C16.5441 25.05 15.2882 24.8397 14.0911 24.4191C12.894 23.9985 11.8637 23.3772 11.0002 22.5551L12.4132 20.0602C13.3355 20.7867 14.2383 21.322 15.1214 21.6661C16.0045 22.0102 16.8679 22.1823 17.7118 22.1823C18.4771 22.1823 19.0855 22.0485 19.5369 21.7808C20.0079 21.5132 20.2434 21.1117 20.2434 20.5764C20.2434 20.022 19.9588 19.6492 19.3897 19.458C18.8206 19.2477 18.0258 18.9897 17.0053 18.6838C15.8671 18.3397 14.9153 17.986 14.15 17.6227C13.3846 17.2595 12.8057 16.8198 12.4132 16.3036C12.0403 15.7875 11.8539 15.1183 11.8539 14.2963C11.8539 12.8242 12.423 11.6485 13.5612 10.7691C14.6994 9.88966 16.2105 9.44995 18.0945 9.44995C19.1934 9.44995 20.2335 9.62201 21.2148 9.96613C22.196 10.2911 22.7759 10.5922 23.6182 11.3038C23.0068 11.8293 22.3141 12.8416 22.0286 13.7413C20.6978 12.7291 19.3308 12.2889 17.9179 12.2889C17.2899 12.2889 16.7306 12.4036 16.24 12.633C15.769 12.8625 15.5335 13.2639 15.5335 13.8375C15.5335 14.3727 15.7592 14.7551 16.2105 14.9845C16.6815 15.2139 17.388 15.4625 18.33 15.7301C19.5467 16.0933 20.577 16.447 21.4208 16.7911C22.2843 17.1352 22.9319 17.575 23.3636 18.1102C23.815 18.6455 24.0407 19.372 24.0407 20.2897C24.0407 21.7808 23.4814 22.947 22.3628 23.7882C21.2442 24.6294 19.7429 25.05 17.859 25.05Z" fill="#1B1B1B"/>
<path d="M29.9943 25.05C28.3262 25.05 26.8838 24.6867 25.6671 23.9602C24.4504 23.2338 23.5084 22.2779 22.8412 21.0926C22.174 19.9073 21.8404 18.6264 21.8404 17.25C21.8404 15.8544 22.1642 14.5639 22.8118 13.3786C23.479 12.1933 24.421 11.247 25.6377 10.5397C26.8544 9.8323 28.2968 9.47863 29.9649 9.47863C31.6526 9.47863 33.0852 9.8323 34.2626 10.5397C35.4597 11.247 36.3526 12.1742 36.9414 13.3213L33.0852 14.4683C32.3983 13.3213 31.3484 12.7477 29.9354 12.7477C29.1701 12.7477 28.4832 12.9389 27.8749 13.3213C27.2665 13.6845 26.7857 14.2102 26.4325 14.8985C26.0792 15.5676 25.9026 16.3514 25.9026 17.25C25.9026 18.1294 26.0792 18.9132 26.4325 19.6014C26.8053 20.2705 27.296 20.8058 27.9043 21.2073C28.5127 21.5897 29.1897 21.7808 29.9354 21.7808C30.6419 21.7808 31.2895 21.6183 31.8783 21.2933C32.4866 20.9492 32.9085 20.5191 33.144 20.0029L37.0002 21.15C36.4704 22.2779 35.5873 23.2147 34.3509 23.9602C33.1342 24.6867 31.682 25.05 29.9943 25.05Z" fill="#1B1B1B"/>
<path d="M2.53977 27.5426V5.97159H9.2642V8.68182H6.05114V24.8239H9.2642V27.5426H2.53977ZM44.8722 5.97159V27.5426H38.1477V24.8239H41.3608V8.68182H38.1477V5.97159H44.8722Z" fill="#1B1B1B"/>
</svg>
